<svg xmlns="http://www.w3.org/2000/svg" data-name="Layer 1" viewBox="0 0 512 512"><path fill="#f9f7f8" d="M462.81128,501.999V432.49029a100,100,0,0,0-73.65179-96.46643l-60.06017-16.40444L256,301.5459l-73.09933,18.07351-60.06026,16.40446A100,100,0,0,0,49.1886,432.4903V501.999a10,10,0,0,0,10,10H452.81128A10,10,0,0,0,462.81128,501.999Z"/><path fill="#ededed" d="M391.39648,511.999a3.50017,3.50017,0,0,1-3.5-3.5V435.3252a3.5,3.5,0,0,1,7,0V508.499A3.50017,3.50017,0,0,1,391.39648,511.999Z"/><polygon fill="#ededed" points="329.101 319.613 256 353.197 182.899 319.613 182.899 274.1 256 309.1 329.101 274.1 329.101 319.613"/><polygon fill="#f9f7f8" points="256 309.1 329.101 274.1 329.101 319.613 256 353.197 256 309.1"/><path fill="#eaeaea" d="M462.81128,501.999V432.49023a99.99988,99.99988,0,0,0-73.65186-96.4663l-60.06-16.40479-.00831-.002L201.73779,378.127A14.99991,14.99991,0,0,0,193,391.75732V511.999H452.81128A10,10,0,0,0,462.81128,501.999Z"/><circle cx="235" cy="399.999" r="10.5" fill="#ff7b4f"/><circle cx="291" cy="399.999" r="10.5" fill="#ff7b4f"/><circle cx="235" cy="448.999" r="10.5" fill="#ff7b4f"/><circle cx="291" cy="448.999" r="10.5" fill="#ff7b4f"/><circle cx="235" cy="497.999" r="10.5" fill="#ff7b4f"/><circle cx="291" cy="497.999" r="10.5" fill="#ff7b4f"/><path fill="#e58a7b" d="M336.51053,175.46671h2.85237a27.43494,27.43494,0,0,1,27.43494,27.43494v.00005a27.43494,27.43494,0,0,1-27.43494,27.43494h-2.85237a0,0,0,0,1,0,0V175.46671A0,0,0,0,1,336.51053,175.46671Z"/><path fill="#f9beac" d="M336.51053,230.33664v11.58118A84.95324,84.95324,0,0,1,311.621,301.9961l0,0A45.78393,45.78393,0,0,1,279.25081,315.402H233.56837a45.78393,45.78393,0,0,1-32.37018-13.40587l0,0a84.95324,84.95324,0,0,1-24.8895-60.07828v-63.098l14.11912-7H322.62546l13.88507,7Z"/><path fill="#343c4a" d="M336.51053 216.08262h-4a10 10 0 0 1-10-10v-45h14zM176.30865 216.08262h4a10 10 0 0 0 10-10v-38h-14zM287.79457 267.48257c1.98824-.48115 14.61285-3.73807 22.16767-15.49573.58924-.91707 1.10743-1.82325 1.56366-2.707a2.99786 2.99786 0 0 0-3.68909-4.21313 20.93325 20.93325 0 0 1-10.58008 1.38385c-6.50543-.94268-8.945-4.90211-14.96429-7.1314-5.06456-1.87578-13.16962-2.71353-25.89055 3.16224-12.721-5.87577-20.826-5.038-25.8906-3.16224-6.01934 2.22929-8.45886 6.18872-14.96422 7.1314a20.94091 20.94091 0 0 1-10.59608-1.39005 2.99809 2.99809 0 0 0-3.68658 4.21889c.45874.88438.98124 1.791 1.57708 2.70766 8.07047 12.41542 22.14451 15.2 24.352 15.60169 15.499 2.82046 27.14507-4.96568 29.20836-6.39681C258.21043 262.48555 271.2454 271.48624 287.79457 267.48257z"/><path fill="#e58a7b" d="M269.114,224.81361v6.74293a12.7012,12.7012,0,0,1-12.7012,12.7012h-.00648a12.7012,12.7012,0,0,1-12.7012-12.7012v-6.74293a3,3,0,0,1,3-3H266.114A3,3,0,0,1,269.114,224.81361Z"/><path fill="#e58a7b" d="M146.02135,175.46671h2.85237a27.43494,27.43494,0,0,1,27.43494,27.43494v.00005a27.43494,27.43494,0,0,1-27.43494,27.43494h-2.85237a0,0,0,0,1,0,0V175.46671A0,0,0,0,1,146.02135,175.46671Z" transform="rotate(180 161.165 202.902)"/><path fill="#f9f7f8" d="M371.816,66.67244A49.31543,49.31543,0,0,0,280.4549,41.04255c-4.27616,6.9648-44.72109,6.69369-49.1258-.34854a49.31571,49.31571,0,1,0-57.75155,72.79534,4.006,4.006,0,0,1,2.731,3.78592v33.54455H336.5105V116.99106a4.00511,4.00511,0,0,1,2.66743-3.764A49.32372,49.32372,0,0,0,371.816,66.67244Z"/><rect width="160.202" height="21" x="176.309" y="150.82" fill="#ff7b4f"/><path fill="#ededed" d="M308.637,19.481a49.41287,49.41287,0,0,0-28.18213,21.56152c-4.27612,6.96484-44.72094,6.69385-49.12573-.34863a49.54353,49.54353,0,0,0-8.48669-10.20215,54.42972,54.42972,0,0,0-7.54077,27.70557h95.39685a28.62713,28.62713,0,0,0,6.68457-16.40284C318.19214,29.19629,309.96436,20.79248,308.637,19.481Z"/><path fill="#ededed" d="M296.69824,58.19727a54.42523,54.42523,0,0,0-7.54053-27.70508,49.54421,49.54421,0,0,0-8.70288,10.55029c-4.27612,6.96484-44.72094,6.69385-49.12573-.34863a49.40851,49.40851,0,0,0-27.96655-21.2124c-1.02844.84082-10.67969,9.00683-9.86731,21.92578a26.35231,26.35231,0,0,0,7.8064,16.79Z"/><path fill="#f9f7f8" d="M201.30161,58.19742a54.69839,54.69839,0,1,1,109.39678,0Z"/><path d="M291,484a14,14,0,1,0,14,14A14.01572,14.01572,0,0,0,291,484Zm0,21a7,7,0,1,1,7-7A7.00818,7.00818,0,0,1,291,505ZM269.12988,281.73828A29.89042,29.89042,0,0,1,256.5,284.60107h-.08984a29.89294,29.89294,0,0,1-12.72168-2.86279,3.50031,3.50031,0,0,0-2.99805,6.32617,36.94491,36.94491,0,0,0,15.7207,3.53662h.11035a36.95155,36.95155,0,0,0,15.60645-3.53662,3.50031,3.50031,0,0,0-2.998-6.32617Zm37.44629-39.93555a17.43417,17.43417,0,0,1-8.81738,1.18506c-3.02441-.43847-4.92383-1.67724-7.32813-3.24609a33.37558,33.37558,0,0,0-6.92285-3.70361,27.33026,27.33026,0,0,0-11.17431-1.54,16.16738,16.16738,0,0,0,.28076-2.94043v-5.52979a3.5,3.5,0,0,0-7,0v5.52979a9.135,9.135,0,0,1-1.03418,4.22021,56.75312,56.75312,0,0,0-8.17774,2.86914,56.78218,56.78218,0,0,0-8.16076-2.86426,9.13563,9.13563,0,0,1-1.0365-4.22509v-5.52979a3.5,3.5,0,0,0-7,0v5.52979a16.18879,16.18879,0,0,0,.281,2.94238,27.34377,27.34377,0,0,0-11.19018,1.53809,33.37558,33.37558,0,0,0-6.92285,3.70361c-2.4043,1.56885-4.30371,2.80762-7.32813,3.24609a17.44757,17.44757,0,0,1-8.83105-1.19043,6.394,6.394,0,0,0-7.11817,1.71387,6.49428,6.49428,0,0,0-.9375,7.38135c.53321,1.02637,1.1211,2.03662,1.749,3.00293,8.40332,12.92773,22.53027,16.38574,26.65918,17.13769a43.5373,43.5373,0,0,0,29.81445-5.66894,45.07737,45.07737,0,0,0,22.94922,6.6289,39.4231,39.4231,0,0,0,9.28808-1.10791c3.71094-.89795,16.43164-4.77734,24.28711-17.0039.61621-.9585,1.19825-1.96533,1.73145-2.9961a6.49522,6.49522,0,0,0-.94727-7.3706A6.39255,6.39255,0,0,0,306.57617,241.80273Zm.44141,8.293c-6.4502,10.03809-16.97363,13.24268-20.0459,13.98584-14.59668,3.52979-26.32813-4.1582-28.53223-5.73486a3.50092,3.50092,0,0,0-4.03222-.02979c-2.85743,1.98243-13.22461,8.26026-26.58692,5.82959-3.43261-.625-15.167-3.48632-22.04394-14.06591q-.40869-.62916-.78809-1.28614a23.84654,23.84654,0,0,0,11.06055,1.1211c4.55273-.65967,7.52637-2.59961,10.14941-4.31153a26.84538,26.84538,0,0,1,5.5293-3.00146,22.71989,22.71989,0,0,1,12.30176-.61426,16.16652,16.16652,0,0,0,24.76367-.00293,22.71864,22.71864,0,0,1,12.2832.61719,26.84538,26.84538,0,0,1,5.5293,3.00146c2.623,1.71192,5.59668,3.65186,10.14941,4.31153a23.8588,23.8588,0,0,0,11.04981-1.11719Q307.4253,249.46118,307.01758,250.0957ZM235,386a14,14,0,1,0,14,14A14.01572,14.01572,0,0,0,235,386Zm0,21a7,7,0,1,1,7-7A7.00818,7.00818,0,0,1,235,407Zm155.08105-74.35156-57.48144-15.7002V277.417a88.21661,88.21661,0,0,0,7.41113-35.498V233.8208a30.92479,30.92479,0,0,0,0-61.83642v-23.875l-.001-.00977V116.99023a.49887.49887,0,0,1,.35351-.4663,52.92732,52.92732,0,0,0,34.957-49.86475c-.085-28.11279-22.99414-51.72168-51.06836-52.62744a52.83785,52.83785,0,0,0-24.94287,5.34131,58.09635,58.09635,0,0,0-86.61328-.00586,52.815,52.815,0,1,0-40.2583,97.43115.52618.52618,0,0,1,.37207.48145V150.811l-.001.00976.001.00977v1.69091l-.001.00977v19.45313a30.92479,30.92479,0,0,0,0,61.83642V241.919a88.32171,88.32171,0,0,0,6.5918,33.61669v41.4126L121.919,332.64844a103.73345,103.73345,0,0,0-76.23047,99.84277V508.5a3.5,3.5,0,0,0,7,0V432.49121a96.71677,96.71677,0,0,1,71.07422-93.08984l58.84765-16.07325,65.00513,29.87061-47.33814,21.74854A18.55063,18.55063,0,0,0,189.5,391.7583V508.5a3.5,3.5,0,0,0,7,0V391.7583a11.53189,11.53189,0,0,1,6.69922-10.45019L257.354,356.42773l.02246-.01025.07032-.03223.01416-.00488,21.10937-9.70019,50.8252-23.35059,58.84179,16.07178a96.71677,96.71677,0,0,1,71.07422,93.08984V508.5a3.5,3.5,0,0,0,7,0V432.49121A103.73345,103.73345,0,0,0,390.08105,332.64844ZM340.01074,178.98438a23.92676,23.92676,0,0,1,0,47.83642ZM172.80859,226.8208a23.92676,23.92676,0,0,1,0-47.83642Zm160.20215-14.24072h-.501a6.50753,6.50753,0,0,1-6.5-6.5V175.3208h7.001ZM179.80957,168.31982v-13.999h153.2002v13.999Zm7,7.001v30.75928a6.50753,6.50753,0,0,1-6.5,6.5h-.501V175.3208ZM174.709,110.17725a45.80992,45.80992,0,1,1,33.51807-85.15967,57.85715,57.85715,0,0,0-10.42529,33.18066,3.5,3.5,0,0,0,7,0,51.19824,51.19824,0,1,1,102.39648,0,3.5,3.5,0,0,0,7,0,57.85673,57.85673,0,0,0-10.42114-33.1748,45.80781,45.80781,0,1,1,34.22778,84.90967,7.51564,7.51564,0,0,0-4.99511,7.05712V147.3208H179.80957v-30.041A7.53192,7.53192,0,0,0,174.709,110.17725ZM252.5,347.73975l-66.09961-30.37354V289.043a89.12,89.12,0,0,0,12.32324,15.4292,48.96126,48.96126,0,0,0,34.84473,14.43066H252.5Zm73.09961-30.37354-53.73486,24.6919L259.5,347.73877V318.90283h19.751a48.96122,48.96122,0,0,0,34.84472-14.43066A89.25788,89.25788,0,0,0,325.59961,290.335Zm.4729-42.50293a3.473,3.473,0,0,0-.28247.63623A81.42555,81.42555,0,0,1,309.14648,299.522a42.00591,42.00591,0,0,1-29.8955,12.38086H256.02905c-.01,0-.019-.00293-.029-.00293s-.019.00293-.02905.00293H233.56836A42.00594,42.00594,0,0,1,203.67285,299.522a81.34621,81.34621,0,0,1-17.42956-25.79443,3.47168,3.47168,0,0,0-.33973-.78858,81.33,81.33,0,0,1-6.095-31.02V219.58008h.501a13.51507,13.51507,0,0,0,13.5-13.5V175.3208h125.2002v30.75928a13.51507,13.51507,0,0,0,13.5,13.5h.501V241.919A81.22213,81.22213,0,0,1,326.07251,274.86328Zm-205.469,156.96289a3.50017,3.50017,0,0,0-3.5,3.5V508.5a3.5,3.5,0,0,0,7,0V435.32617A3.50018,3.50018,0,0,0,120.60352,431.82617ZM235,435a14,14,0,1,0,14,14A14.01572,14.01572,0,0,0,235,435Zm0,21a7,7,0,1,1,7-7A7.00818,7.00818,0,0,1,235,456Zm0,28a14,14,0,1,0,14,14A14.01572,14.01572,0,0,0,235,484Zm0,21a7,7,0,1,1,7-7A7.00818,7.00818,0,0,1,235,505Zm0-369.54736a3.50017,3.50017,0,0,0,3.5-3.5v-37.292a3.5,3.5,0,0,0-7,0v37.292A3.50017,3.50017,0,0,0,235,135.45264Zm45.9248,52.85693a27.14555,27.14555,0,0,1,9.66114-2.03711,27.46427,27.46427,0,0,1,11.042,2.0376,3.50005,3.50005,0,0,0,2.65625-6.47656,34.205,34.205,0,0,0-26.01758.00048,3.5,3.5,0,0,0,2.6582,6.47559Zm6.85059,7.03711v7.43311a3.5,3.5,0,0,0,7,0v-7.43311a3.5,3.5,0,0,0-7,0ZM277,135.45264a3.50017,3.50017,0,0,0,3.5-3.5v-37.292a3.5,3.5,0,0,0-7,0v37.292A3.50017,3.50017,0,0,0,277,135.45264Zm-21,0a3.50017,3.50017,0,0,0,3.5-3.5v-37.292a3.5,3.5,0,0,0-7,0v37.292A3.50017,3.50017,0,0,0,256,135.45264Zm-44.80762,52.85693a27.14379,27.14379,0,0,1,9.66114-2.03711,27.47351,27.47351,0,0,1,11.042,2.0376,3.50005,3.50005,0,0,0,2.65625-6.47656,34.205,34.205,0,0,0-26.01758.00048,3.5,3.5,0,1,0,2.6582,6.47559ZM291,435a14,14,0,1,0,14,14A14.01572,14.01572,0,0,0,291,435Zm0,21a7,7,0,1,1,7-7A7.00818,7.00818,0,0,1,291,456ZM218.044,195.34668v7.43311a3.5,3.5,0,0,0,7,0v-7.43311a3.5,3.5,0,0,0-7,0ZM291,386a14,14,0,1,0,14,14A14.01572,14.01572,0,0,0,291,386Zm0,21a7,7,0,1,1,7-7A7.00818,7.00818,0,0,1,291,407Zm100.39648,24.82617a3.50018,3.50018,0,0,0-3.5,3.5V508.5a3.5,3.5,0,0,0,7,0V435.32617A3.50017,3.50017,0,0,0,391.39648,431.82617Z"/></svg>